<svg width="102" height="17" viewBox="0 0 102 17" fill="none" xmlns="http://www.w3.org/2000/svg">
<path d="M11.3193 6.2317L18 6.56312L12.7081 10.608L14.4538 17L8.92864 13.2675L3.32937 16.8859L5.20677 10.5347L0 6.38111L6.68618 6.18552L9.06587 0L11.3193 6.2317Z" fill="#E8BB20"/>
<path d="M32.3193 6.2317L39 6.56312L33.7081 10.608L35.4538 17L29.9286 13.2675L24.3294 16.8859L26.2068 10.5347L21 6.38111L27.6862 6.18552L30.0659 0L32.3193 6.2317Z" fill="#E8BB20"/>
<path d="M53.3193 6.2317L60 6.56312L54.7081 10.608L56.4538 17L50.9286 13.2675L45.3294 16.8859L47.2068 10.5347L42 6.38111L48.6862 6.18552L51.0659 0L53.3193 6.2317Z" fill="#E8BB20"/>
<path d="M74.3193 6.2317L81 6.56312L75.7081 10.608L77.4538 17L71.9286 13.2675L66.3294 16.8859L68.2068 10.5347L63 6.38111L69.6862 6.18552L72.0659 0L74.3193 6.2317Z" fill="#E8BB20"/>
<path d="M95.3193 6.2317L102 6.56312L96.7081 10.608L98.4538 17L92.9286 13.2675L87.3294 16.8859L89.2068 10.5347L84 6.38111L90.6862 6.18552L93.0659 0L95.3193 6.2317Z" fill="#E8BB20"/>
</svg>
